<?xml version="1.0" encoding="utf-8"?>
<!-- Generator: Adobe Illustrator 21.0.0, SVG Export Plug-In . SVG Version: 6.00 Build 0)  -->
<svg version="1.1" id="svg2" xmlns="http://www.w3.org/2000/svg" xmlns:xlink="http://www.w3.org/1999/xlink" x="0px" y="0px"
	 viewBox="0 0 777.7 12310.3" style="enable-background:new 0 0 777.7 12310.3;" xml:space="preserve">
<style type="text/css">
	.st0{fill:#FFFFFF;stroke:#FFFFFF;stroke-width:40;}
	.st1{fill:#FFFFFF;stroke:#FFFFFF;stroke-miterlimit:10;}
</style>
<title>headphone-jack</title>
<g id="layer1">
	<path id="path4144" class="st0" d="M471.7,12310.3l63.3-109.7l-4.3-16l-56.8-211.8l70.3-54v-833.9h105v-69.5H128.3v69.5h105v833.9
		l70.3,54l-56.8,211.8l-4.3,16l63.3,109.7H471.7z"/>
	<path id="rect4155" class="st1" d="M544.3,11647.2v-53.7h-311v53.7H544.3z"/>
	<path id="rect4157" class="st1" d="M544.3,11908.8v-53.7h-311v53.7H544.3z"/>
</g>
<polygon class="st1" points="777.7,9796.2 583.3,9598.2 583.3,20 194.4,20 194.4,6312.9 194.4,9598.2 0,9796.2 0,11043.4 
	777.7,11043.4 "/>
<path id="rect4155-2" class="st1" d="M544.4,11356.9v-53.7h-311v53.7H544.4z"/>
</svg>
