<svg id="svg2" xmlns="http://www.w3.org/2000/svg" viewBox="0 0 12310.28 777.7">
    <defs>
        <style>.cls-1{fill:none;stroke:#fff;stroke-width:40px;}</style>
        <style>.cls-2{fill:#fff;stroke:#fff;stroke-width:40px;}</style>
    </defs><title>headphone-jack</title>
    <g id="layer1">
        <path id="path4144" class="cls-1" d="M12290.28,306l-109.7-63.3-16,4.3-211.8,56.8-54-70.3h-833.9v-105h-69.5v520.9h69.5v-105h833.9l54-70.3,211.8,56.8,16,4.3,109.7-63.3Z"/>
        <path id="rect4155" class="cls-1" d="M11627.18,233.37h-53.7v311h53.7Z"/>
        <path id="rect4157" class="cls-1" d="M11888.78,233.37h-53.7v311h53.7Z"/>
    </g>
    <polygon class="cls-2" points="9776.2 0 9578.2 194.4 0 194.4 0 583.3 6292.9 583.3 9578.2 583.3 9776.2 777.7 11023.4 777.7 11023.4 0 9776.2 0"/>
    <path class="cls-2" id="rect4155-2" data-name="rect4155" d="M11336.9,233.3h-53.7v311h53.7Z"/>
</svg>