<?xml version="1.0" encoding="utf-8"?>
<!-- Generator: Adobe Illustrator 21.0.0, SVG Export Plug-In . SVG Version: 6.00 Build 0)  -->
<svg version="1.1"
	 id="svg2" inkscape:version="0.91 r13725" sodipodi:docname="Jack Stereo 3.5mm Audio Plug Minimal.svg" xmlns:cc="http://creativecommons.org/ns#" xmlns:dc="http://purl.org/dc/elements/1.1/" xmlns:inkscape="http://www.inkscape.org/namespaces/inkscape" xmlns:rdf="http://www.w3.org/1999/02/22-rdf-syntax-ns#" xmlns:sodipodi="http://sodipodi.sourceforge.net/DTD/sodipodi-0.dtd" xmlns:svg="http://www.w3.org/2000/svg"
	 xmlns="http://www.w3.org/2000/svg" xmlns:xlink="http://www.w3.org/1999/xlink" x="0px" y="0px" viewBox="0 0 12290.3 3628.6"
	 style="enable-background:new 0 0 12290.3 3628.6;" xml:space="preserve">
<style type="text/css">
	.st0{fill:none;stroke:#000000;stroke-width:40;}
</style>
<sodipodi:namedview  bordercolor="#666666" borderopacity="1.0" fit-margin-bottom="0" fit-margin-left="0" fit-margin-right="0" fit-margin-top="0" id="base" inkscape:current-layer="layer1" inkscape:cx="-2323.6624" inkscape:cy="443.15244" inkscape:document-units="px" inkscape:object-nodes="true" inkscape:pageopacity="0.0" inkscape:pageshadow="2" inkscape:snap-bbox="false" inkscape:snap-object-midpoints="true" inkscape:snap-smooth-nodes="true" inkscape:window-height="859" inkscape:window-maximized="0" inkscape:window-width="1825" inkscape:window-x="0" inkscape:window-y="0" inkscape:zoom="0.0875" pagecolor="#ffffff" showgrid="false" units="px">
	</sodipodi:namedview>
<g id="layer1" transform="translate(-404.41608,462.67495)" inkscape:groupmode="layer" inkscape:label="Layer 1">
	<path id="path4144" inkscape:connector-curvature="0" sodipodi:nodetypes="ccccccccccccccccc" class="st0" d="M12694.7,2289.5
		l-109.7-63.3l-16,4.3l-211.8,56.8l-54-70.3h-833.9v-105h-69.5v520.9h69.5v-105h833.9l54-70.3l211.8,56.8l16,4.3l109.7-63.3V2289.5z
		"/>
	<path id="rect4155" inkscape:connector-curvature="0" d="M12031.6,2216.9h-53.7v311h53.7V2216.9z"/>
	<path id="rect4157" inkscape:connector-curvature="0" d="M12293.2,2216.9h-53.7v311h53.7V2216.9z"/>
</g>
<polygon points="9776.2,2446.2 9578.2,2640.6 0,2640.6 0,3029.5 6292.9,3029.5 9578.2,3029.5 9776.2,3223.9 11023.4,3223.9 
	11023.4,2446.2 "/>
<path id="rect4155_1_" inkscape:connector-curvature="0" d="M11336.9,2679.5h-53.7v311h53.7V2679.5z"/>
<title>apple-iphone-5s</title>
<description>Created with Sketch (http://www.bohemiancoding.com/sketch)</description>
</svg>
