<?xml version="1.0" encoding="utf-8"?>
<!-- Generator: Adobe Illustrator 21.0.0, SVG Export Plug-In . SVG Version: 6.00 Build 0)  -->
<svg version="1.1" id="Layer_1" transform="rotate(270)" xmlns:sketch="http://www.bohemiancoding.com/sketch/ns"
	 xmlns="http://www.w3.org/2000/svg" xmlns:xlink="http://www.w3.org/1999/xlink" x="0px" y="0px" viewBox="0 0 7618.5 3628.6"
	 style="enable-background:new 0 0 7618.5 3628.6;" xml:space="preserve">
<g id="Page-1" sketch:type="MSPage">
	<path id="Apple-iPhone-5S" sketch:type="MSShapeGroup" d="M93.5,2660.5l-60.6-51.1V1182.2H0V591.1h32.8v-65.8
		C32.8,235.2,268.1,0,558.3,0H7093c290.2,0,525.5,235.2,525.5,525.3v2528.8c0,290.1-235.3,525.3-525.5,525.3H2692.7v49.3h-279.1
		v-49.3h-344.8v49.3h-279.1v-49.3h-361.2v49.3h-344.8v-49.3H558.3c-290.2,0-525.5-235.2-525.5-525.3l64.2-55.7L93.5,2660.5z
		 M656.8,2085.1c0,9.1,7.3,16.6,16.6,16.6h32.5c9.2,0,16.6-7.4,16.6-16.4v-367.9v-206.7c0-9.1-7.3-16.5-16.6-16.5h-32.5
		c-9.2,0-16.6,7.2-16.6,16.6V2085.1z M476.2,1797.9c0-40.8-33.1-73.9-73.9-73.9s-73.9,33.1-73.9,73.9c0,40.8,33.1,73.9,73.9,73.9
		S476.2,1838.7,476.2,1797.9z M1083.7,3333.2c0,18.1,14.8,32.7,33,32.7h5434.4c18.2,0,33-14.8,33-32.7v-3087
		c0-18.1-14.8-32.7-33-32.7H1116.7c-18.2,0-33,14.8-33,32.7V3333.2z M7388.6,1789.7c0-172.3-139.7-312-312-312
		c-172.3,0-312,139.7-312,312s139.7,312,312,312C7248.9,2101.7,7388.6,1962,7388.6,1789.7z M738.9,2298.7
		c0-27.2-22.1-49.3-49.3-49.3c-27.2,0-49.3,22.1-49.3,49.3s22.1,49.3,49.3,49.3C716.8,2347.9,738.9,2325.9,738.9,2298.7z
		 M7355.8,1789.7c0-154.2-125-279.1-279.1-279.1c-154.2,0-279.1,125-279.1,279.1s125,279.1,279.1,279.1
		C7230.8,2068.8,7355.8,1943.8,7355.8,1789.7z"/>
</g>
</svg>
