<svg id="Layer_1" data-name="Layer 1" xmlns="http://www.w3.org/2000/svg" viewBox="0 0 7618.5 3628.7">
    <title>iphone</title>
    <defs>
        <style>.cls-1{fill:#fff;stroke:#fff;stroke-width:40px;}</style>
    </defs>
    <g id="Page-1">
        <path class="cls-1" id="Apple-iPhone-5S" d="M93.5,2660.7l-60.6-51.1V1182.4H0V591.3H32.8V525.5C32.8,235.4,268.1.2,558.3.2H7093c290.2,0,525.5,235.2,525.5,525.3V3054.3c0,290.1-235.3,525.3-525.5,525.3H2692.7v49.3H2413.6v-49.3H2068.8v49.3H1789.7v-49.3H1428.5v49.3H1083.7v-49.3H558.3c-290.2,0-525.5-235.2-525.5-525.3L97,2998.6Zm563.3-575.4a16.56,16.56,0,0,0,16.6,16.6h32.5a16.52,16.52,0,0,0,16.6-16.4V1510.9a16.47,16.47,0,0,0-16.6-16.5H673.4a16.43,16.43,0,0,0-16.6,16.6ZM476.2,1798.1a73.9,73.9,0,1,0-73.9,73.9A73.92,73.92,0,0,0,476.2,1798.1Zm607.5,1535.3a32.84,32.84,0,0,0,33,32.7H6551.1a33,33,0,0,0,33-32.7V246.4a32.84,32.84,0,0,0-33-32.7H1116.7a33,33,0,0,0-33,32.7ZM7388.6,1789.9c0-172.3-139.7-312-312-312s-312,139.7-312,312,139.7,312,312,312S7388.6,1962.2,7388.6,1789.9Zm-6649.7,509a49.3,49.3,0,1,0-49.3,49.3A49.34,49.34,0,0,0,738.9,2298.9Zm6616.9-509c0-154.2-125-279.1-279.1-279.1s-279.1,125-279.1,279.1,125,279.1,279.1,279.1S7355.8,1944,7355.8,1789.9Z" transform="translate(0 -0.2)"/>
    </g>
</svg>