<?xml version="1.0" encoding="utf-8"?>
<!-- Generator: Adobe Illustrator 21.0.0, SVG Export Plug-In . SVG Version: 6.00 Build 0)  -->
<svg version="1.1" id="Layer_1" xmlns="http://www.w3.org/2000/svg" xmlns:xlink="http://www.w3.org/1999/xlink" x="0px" y="0px"
	 viewBox="0 0 3628.7 7618.5" style="enable-background:new 0 0 3628.7 7618.5;" xml:space="preserve">
<style type="text/css">
	.st0{fill:#FFFFFF;}
</style>
<title>iphone</title>
<g id="Page-1">
	<path id="Apple-iPhone-5S" class="st0" d="M968.2,93.5l51.1-60.6h1427.2V0h591.1v32.8h65.8c290.1,0,525.3,235.3,525.3,525.5V7093
		c0,290.2-235.2,525.5-525.3,525.5H574.6c-290.1,0-525.3-235.3-525.3-525.5V2692.7H0v-279.1h49.3v-344.8H0v-279.1h49.3v-361.2H0
		v-344.8h49.3V558.3c0-290.2,235.2-525.5,525.3-525.5L630.3,97L968.2,93.5z M1543.6,656.8c-9.1,0-16.6,7.4-16.6,16.5
		c0,0,0,0.1,0,0.1v32.5c0,9.1,7.3,16.5,16.4,16.6H2118c9.1,0,16.5-7.3,16.5-16.4c0-0.1,0-0.1,0-0.2v-32.5
		c0.1-9.1-7.2-16.5-16.3-16.6c-0.1,0-0.2,0-0.3,0L1543.6,656.8z M1830.8,476.2c40.8,0,73.9-33.1,73.9-73.9s-33.1-73.9-73.9-73.9
		c-40.8,0-73.9,33.1-73.9,73.9C1756.9,443.1,1790,476.2,1830.8,476.2z M295.5,1083.7c-18.1,0.1-32.8,14.8-32.7,33c0,0,0,0,0,0
		v5434.4c0,18.1,14.6,32.8,32.7,33h3087c18.1-0.1,32.8-14.8,32.7-33c0,0,0,0,0,0V1116.7c0-18.1-14.6-32.8-32.7-33H295.5z
		 M1839,7388.6c172.3,0,312-139.7,312-312s-139.7-312-312-312s-312,139.7-312,312S1666.7,7388.6,1839,7388.6z M1330,738.9
		c27.2,0,49.3-22.1,49.3-49.3c0-27.2-22.1-49.3-49.3-49.3c-27.2,0-49.3,22.1-49.3,49.3C1280.7,716.8,1302.8,738.9,1330,738.9
		L1330,738.9z M1839,7355.8c154.2,0,279.1-125,279.1-279.1s-125-279.1-279.1-279.1s-279.1,125-279.1,279.1
		S1684.9,7355.8,1839,7355.8L1839,7355.8z"/>
</g>
</svg>
